<svg xmlns="http://www.w3.org/2000/svg" viewBox="0 0 345.11 57.93"><defs><style>.cls-1{fill:#231f20;}</style></defs><title>hannah grace logo</title><g id="Layer_2" data-name="Layer 2"><g id="Layer_1-2" data-name="Layer 1"><path class="cls-1" d="M46.67,1.69a1.85,1.85,0,0,1,1.84,1.84V49.07a1.85,1.85,0,0,1-1.84,1.84H33.76a1.85,1.85,0,0,1-1.84-1.84V34.61a1.85,1.85,0,0,0-1.84-1.84H18.43a1.85,1.85,0,0,0-1.84,1.84V49.07a1.85,1.85,0,0,1-1.84,1.84H1.84A1.85,1.85,0,0,1,0,49.07V3.53A1.85,1.85,0,0,1,1.84,1.69H14.75a1.85,1.85,0,0,1,1.84,1.84V17.29a1.85,1.85,0,0,0,1.84,1.84H30.08a1.85,1.85,0,0,0,1.84-1.84V3.53a1.85,1.85,0,0,1,1.84-1.84Z"/><path class="cls-1" d="M331.32,43.68a6.9,6.9,0,0,1,13.79,0,6.9,6.9,0,0,1-13.79,0Z"/><path class="cls-1" d="M107.71,24.4h10.12A2.14,2.14,0,0,1,120,26.54V43a3.89,3.89,0,0,1-1.87,3.38,40.67,40.67,0,0,1-19.57,5.09C82.64,51.47,71,40.85,71,25.73S82.64,0,98.88,0c8.78,0,16,2.77,21,7.83A2.18,2.18,0,0,1,119.7,11l-7.29,6.42a2.24,2.24,0,0,1-3,0,13.55,13.55,0,0,0-9.68-4c-7.32,0-12,4.71-12,12.3C87.77,33.12,92.41,38,99.51,38a15.38,15.38,0,0,0,4.19-.56,2.5,2.5,0,0,0,1.86-2.39V26.54A2.14,2.14,0,0,1,107.71,24.4Z"/><path class="cls-1" d="M148.64,38.68A1.6,1.6,0,0,0,147.3,38h-2.57a1.15,1.15,0,0,0-.78.3,1.84,1.84,0,0,0-.29.93v9.16a2,2,0,0,1-2,2H129.05a2,2,0,0,1-2-2V3.55a2.42,2.42,0,0,1,2.42-2.43h21.27c13.71,0,22.43,7.18,22.43,18.57,0,6.58-2.91,11.66-8,14.77a1.31,1.31,0,0,0-.45,1.86l8.08,11.87a1.38,1.38,0,0,1-1.14,2.15H157.89a2.57,2.57,0,0,1-2.13-1.13Zm1.07-24.76h-4.77a1.28,1.28,0,0,0-1.28,1.28v9a1.28,1.28,0,0,0,1.28,1.28h4.77c4.57,0,6.75-2.18,6.75-5.76S154.28,13.92,149.71,13.92Z"/><path class="cls-1" d="M212,41.76H195.24a1.41,1.41,0,0,0-1.31.9l-2.55,6.62a1.66,1.66,0,0,1-1.55,1.06H175.94a1.12,1.12,0,0,1-1.11-1.69l20-45.84a3.07,3.07,0,0,1,2.58-1.69h12.63a3.07,3.07,0,0,1,2.58,1.69l20,45.84a1.12,1.12,0,0,1-1.11,1.69H217.42a1.66,1.66,0,0,1-1.55-1.06l-2.55-6.62A1.41,1.41,0,0,0,212,41.76ZM208,28.7l-3.66-9.49a.73.73,0,0,0-1.37,0l-3.67,9.49a.82.82,0,0,0,.77,1.11h7.17A.81.81,0,0,0,208,28.7Z"/><path class="cls-1" d="M230.43,25.73C230.43,10.62,242,0,257.85,0c8.71,0,15.75,2.87,20.6,8.1a2.31,2.31,0,0,1-.23,3.27l-6.81,6.07a2.63,2.63,0,0,1-3.61-.1,12.48,12.48,0,0,0-9.1-3.91c-6.89,0-11.53,4.78-11.53,12.3S252,38.2,259.05,38c3.64-.08,6.68-2.26,9.45-4.61a1.68,1.68,0,0,1,2.23,0l8,7.11a1.72,1.72,0,0,1,.18,2.38c-4.87,5.52-12.07,8.57-21,8.57C242,51.47,230.43,40.85,230.43,25.73Z"/><path class="cls-1" d="M324.08,37.83a1.84,1.84,0,0,1,1.84,1.84V48.5a1.85,1.85,0,0,1-1.84,1.84H286.84A1.85,1.85,0,0,1,285,48.5V3a1.85,1.85,0,0,1,1.84-1.85h36.32A1.85,1.85,0,0,1,325,3V11.8a1.85,1.85,0,0,1-1.84,1.84H302.52a1.21,1.21,0,0,0-1.21,1.21V18.2a1.21,1.21,0,0,0,1.21,1.21h17.76a1.84,1.84,0,0,1,1.84,1.84v8.27a1.85,1.85,0,0,1-1.84,1.84H302.52a1.21,1.21,0,0,0-1.21,1.21v4a1.21,1.21,0,0,0,1.21,1.21Z"/><path class="cls-1" d="M68.25,44.74h0c.24,3.28-1.54,11-10.47,13.16a1,1,0,0,1-1.29-1A1,1,0,0,1,57,56a10.79,10.79,0,0,0,3-2.63c.46-.59.47-1.43-.56-1.65a7.16,7.16,0,0,1-5.57-7.15,7.46,7.46,0,0,1,7.07-7,7.17,7.17,0,0,1,7.26,7.17C68.25,44.81,68.26,44.67,68.25,44.74Z"/></g></g></svg>